# xmcd CD database file
#
# Track frame offsets:
#	150
#	23352
#	40752
#	56237
#	69475
#	91090
#	108490
#	130470
#	148735
#	165677
#
# Disc length: 2479 seconds
#
# Revision: 0
# Processed by: cddbd v1.5PL3 Copyright (c) Steve Scherf et al.
# Submitted via: CDex 1.50
#
DISCID=8509ad0a
DTITLE=pre-school - DANCING IN THE SUN
DYEAR=2003
DGENRE=Rock
TTITLE0=DANCING IN THE SUN
TTITLE1=RAINBOW FLOW
TTITLE2=JOY
TTITLE3=FAR
TTITLE4=I GUESS
TTITLE5=CHERRY PIE!
TTITLE6=FAST CAR
TTITLE7=GENERALLY
TTITLE8=itsy-bitsy picture
TTITLE9=WHIP!
EXTD=YEAR: 2003
EXTT0=
EXTT1=
EXTT2=
EXTT3=
EXTT4=
EXTT5=
EXTT6=
EXTT7=
EXTT8=
EXTT9=
PLAYORDER=
